<?xml version="1.0" encoding="iso-8859-1"?>
<!-- Uploaded to: SVG Repo, www.svgrepo.com, Generator: SVG Repo Mixer Tools -->
<svg version="1.1" id="Layer_1" xmlns="http://www.w3.org/2000/svg" xmlns:xlink="http://www.w3.org/1999/xlink" 
	 viewBox="0 0 512 512" xml:space="preserve">
<g>
	<path style="fill:#CCD1D9;" d="M96,149.329C96,155.22,91.227,160,85.337,160h-64c-5.891,0-10.672-4.781-10.672-10.671v-64
		c0-5.891,4.781-10.656,10.672-10.656h64c5.89,0,10.664,4.766,10.664,10.656L96,149.329L96,149.329z"/>
	<path style="fill:#CCD1D9;" d="M192,149.329c0,5.891-4.773,10.671-10.664,10.671h-64c-5.891,0-10.672-4.781-10.672-10.671v-64
		c0-5.891,4.781-10.656,10.672-10.656h64c5.891,0,10.664,4.766,10.664,10.656V149.329z"/>
</g>
<g>
	<path style="fill:#E6E9ED;" d="M490.654,64.001H224c-11.781,0-21.336,9.547-21.336,21.328v32H21.337
		c-11.789,0-21.335,9.562-21.335,21.344v191.999C0.001,342.453,9.548,352,21.337,352h469.317c11.781,0,21.344-9.547,21.344-21.328
		V160v-21.328V85.329C511.998,73.548,502.436,64.001,490.654,64.001z"/>
	<path style="fill:#E6E9ED;" d="M511.998,426.671c0,11.781-9.562,21.328-21.344,21.328H21.337c-11.789,0-21.335-9.547-21.335-21.328
		V213.328C0.001,201.547,9.548,192,21.337,192h469.317c11.781,0,21.344,9.546,21.344,21.328V426.671z"/>
</g>
<rect y="160" style="fill:#434A54;" width="512" height="256"/>
<path style="fill:#5D9CEC;" d="M320,384c-52.938,0-96-43.062-96-96s43.062-96,96-96c52.936,0,95.998,43.062,95.998,96
	S372.936,384,320,384z"/>
<path style="opacity:0.1;fill:#FFFFFF;enable-background:new    ;" d="M320,192c-5.453,0-10.797,0.469-16,1.344
	c45.342,7.64,79.998,47.171,79.998,94.656S349.342,375.016,304,382.656c5.203,0.875,10.547,1.344,16,1.344
	c52.936,0,95.998-43.062,95.998-96S372.936,192,320,192z"/>
<path style="fill:#4A89DC;" d="M320,181.329c-58.914,0-106.664,47.765-106.664,106.671S261.086,394.672,320,394.672
	c58.904,0,106.654-47.766,106.654-106.672S378.904,181.329,320,181.329z M380.342,348.344
	c-16.125,16.109-37.545,24.984-60.342,24.984s-44.219-8.875-60.344-24.984c-16.117-16.125-24.992-37.547-24.992-60.344
	s8.875-44.219,24.992-60.344c16.125-16.109,37.547-24.984,60.344-24.984s44.217,8.875,60.342,24.984
	c16.109,16.125,25,37.547,25,60.344S396.451,332.219,380.342,348.344z"/>
<rect x="384" y="85.33" style="fill:#656D78;" width="96" height="53.34"/>
<g>
	<path style="fill:#CCD1D9;" d="M309.344,101.329h-64.008c-5.891,0-10.672,4.781-10.672,10.672s4.781,10.672,10.672,10.672h64.008
		c5.875,0,10.656-4.781,10.656-10.672S315.219,101.329,309.344,101.329z"/>
	<path style="fill:#CCD1D9;" d="M351.998,85.329c-5.889,0-10.654,4.781-10.654,10.672v32c0,5.891,4.766,10.672,10.654,10.672
		c5.891,0,10.656-4.781,10.656-10.672v-32C362.654,90.11,357.889,85.329,351.998,85.329z"/>
</g>
<path style="fill:#656D78;" d="M170.665,160v21.328c0,5.891,4.781,10.672,10.671,10.672S192,187.219,192,181.329V160H170.665z"/>
</svg>