<?xml version="1.0" encoding="iso-8859-1"?>
<!-- Uploaded to: SVG Repo, www.svgrepo.com, Generator: SVG Repo Mixer Tools -->
<svg version="1.1" id="Layer_1" xmlns="http://www.w3.org/2000/svg" xmlns:xlink="http://www.w3.org/1999/xlink" 
	 viewBox="0 0 512 512" xml:space="preserve">
<path style="fill:#5BCDE4;" d="M292.571,504.163h-73.143c-46.167,0-83.592-37.425-83.592-83.592V154.122h240.327v266.449
	C376.163,466.738,338.738,504.163,292.571,504.163z"/>
<path style="fill:#9FE1ED;" d="M297.796,504.163h-83.592V305.633c0-23.083,18.713-41.796,41.796-41.796l0,0
	c23.083,0,41.796,18.713,41.796,41.796V504.163z"/>
<rect x="182.857" y="7.837" style="fill:#FFFFFF;" width="146.286" height="146.286"/>
<rect x="182.857" y="7.837" style="fill:#5BCDE4;" width="146.286" height="31.347"/>
<g>
	<rect x="211.069" y="75.755" style="fill:#9FE1ED;" width="31.347" height="31.347"/>
	<rect x="269.584" y="75.755" style="fill:#9FE1ED;" width="31.347" height="31.347"/>
</g>
<path d="M203.233,114.939h47.02v-47.02h-47.02V114.939z M218.906,83.592h15.673v15.673h-15.673V83.592z"/>
<path d="M308.767,114.939v-47.02h-47.02v47.02H308.767z M277.42,83.592h15.673v15.673H277.42V83.592z"/>
<path d="M350.041,146.286v15.673h18.286v258.612c0,37.315-27.129,68.395-62.694,74.605V305.633C305.633,278.266,283.367,256,256,256
	s-49.633,22.266-49.633,49.633v167.184h15.673V305.633c0-18.726,15.235-33.959,33.959-33.959s33.959,15.234,33.959,33.959v190.694
	h-70.531c-41.772,0-75.755-33.983-75.755-75.755V161.959H336.98V60.082h-15.673v86.204H128v274.286
	C128,470.986,169.014,512,219.429,512h73.143C342.986,512,384,470.986,384,420.571V146.286H350.041z"/>
<polygon points="190.694,15.673 321.306,15.673 321.306,31.347 203.755,31.347 203.755,47.02 336.98,47.02 336.98,0 175.02,0 
	175.02,133.224 190.694,133.224 "/>
</svg>