<?xml version="1.0" encoding="iso-8859-1"?>
<!-- Uploaded to: SVG Repo, www.svgrepo.com, Generator: SVG Repo Mixer Tools -->
<svg height="800px" width="800px" version="1.1" id="Layer_1" xmlns="http://www.w3.org/2000/svg" xmlns:xlink="http://www.w3.org/1999/xlink" 
	 viewBox="0 0 511.997 511.997" xml:space="preserve">
<path style="fill:#CCD1D9;" d="M410.649,170.64h-82.811c-5.875,0-10.656,4.781-10.656,10.672v53.335
	c0,5.891,4.781,10.664,10.656,10.664h82.812c5.906,0,10.688-4.773,10.688-10.664v-53.335
	C421.337,175.421,416.556,170.64,410.649,170.64z"/>
<g>
	<path style="fill:#434A54;" d="M346.65,490.652c0,0-24.188,21.328-106.664,21.328c-82.468,0-106.671-21.328-106.671-21.328v-53.343
		l-10.656-53.28h234.678l-10.687,53.28V490.652z"/>
	<path style="fill:#434A54;" d="M133.331,21.336c0,0,24.203-21.336,106.671-21.336c82.492,0,106.679,21.336,106.679,21.336v53.335
		l10.655,53.273H122.644l10.688-53.273V21.336H133.331z"/>
</g>
<g style="opacity:0.1;">
	<path style="fill:#FFFFFF;" d="M346.682,42.663V21.336c0,0-24.188-21.336-106.679-21.336c-82.468,0-106.671,21.336-106.671,21.336
		v21.327c0,0,24.203-21.327,106.671-21.327C322.494,21.336,346.682,42.663,346.682,42.663z"/>
</g>
<g style="opacity:0.1;">
	<path style="fill:#FFFFFF;" d="M133.331,469.341v21.312c0,0,24.203,21.344,106.671,21.344c82.492,0,106.679-21.344,106.679-21.344
		v-21.312c0,0-24.188,21.312-106.679,21.312C157.534,490.652,133.331,469.341,133.331,469.341z"/>
</g>
<path style="fill:#CCD1D9;" d="M389.337,266.646c-5.906,0-10.688,4.773-10.688,10.664v53.344c0,5.875,4.781,10.656,10.688,10.656
	c5.875,0,10.656-4.781,10.656-10.656V277.31C399.993,271.42,395.212,266.646,389.337,266.646z"/>
<path style="fill:#656D78;" d="M346.65,106.64H133.315c-23.562,0-42.656,19.102-42.656,42.672v213.343
	c0,23.562,19.094,42.655,42.656,42.655H346.65c23.562,0,42.687-19.093,42.687-42.655V149.311
	C389.337,125.741,370.212,106.64,346.65,106.64z"/>
<path style="opacity:0.1;fill:#FFFFFF;enable-background:new    ;" d="M346.65,106.64h-21.312c23.562,0,42.655,19.102,42.655,42.672
	v213.343c0,23.562-19.094,42.655-42.655,42.655h21.312c23.562,0,42.687-19.093,42.687-42.655V149.311
	C389.337,125.741,370.212,106.64,346.65,106.64z"/>
<path style="fill:#48CFAD;" d="M282.65,255.545c0,23.578-19.086,42.672-42.664,42.672c-23.562,0-42.656-19.094-42.656-42.672
	c0-23.562,19.094-42.664,42.656-42.664C263.564,212.881,282.65,231.982,282.65,255.545z"/>
<path style="fill:#A0D468;" d="M357.337,255.975c0,17.68-14.343,31.992-31.999,31.992c-17.688,0-32-14.312-32-31.992
	c0-17.672,14.312-32,32-32C342.994,223.975,357.337,238.303,357.337,255.975z"/>
<path style="fill:#AC92EB;" d="M186.659,255.975c0,17.68-14.328,31.992-32,31.992s-32-14.312-32-31.992c0-17.672,14.328-32,32-32
	S186.659,238.303,186.659,255.975z"/>
<path style="fill:#EC87C0;" d="M298.65,153.593c15.312,8.836,20.562,28.406,11.719,43.711c-8.844,15.304-28.406,20.546-43.711,11.71
	c-15.312-8.836-20.546-28.405-11.718-43.71C263.783,149.999,283.369,144.757,298.65,153.593z"/>
<path style="fill:#ED5564;" d="M213.331,302.936c15.297,8.844,20.547,28.406,11.703,43.719
	c-8.828,15.297-28.406,20.531-43.703,11.703c-15.312-8.828-20.562-28.406-11.718-43.703
	C178.456,299.342,198.018,294.092,213.331,302.936z"/>
<path style="fill:#FFCE54;" d="M181.331,153.593c15.297-8.836,34.875-3.594,43.703,11.711c8.844,15.305,3.594,34.874-11.703,43.71
	c-15.312,8.836-34.875,3.594-43.718-11.71C160.769,181.999,166.019,162.429,181.331,153.593z"/>
<path style="fill:#5D9CEC;" d="M266.658,302.936c15.305-8.844,34.867-3.594,43.711,11.719c8.844,15.297,3.594,34.875-11.719,43.703
	c-15.281,8.828-34.867,3.594-43.71-11.703C246.112,331.342,251.346,311.779,266.658,302.936z"/>
<path style="fill:#EC87C0;" d="M154.659,202.639c0,5.898-4.781,10.672-10.672,10.672s-10.672-4.773-10.672-10.672
	c0-5.882,4.781-10.663,10.672-10.663S154.659,196.757,154.659,202.639z"/>
<path style="fill:#AC92EB;" d="M346.65,202.639c0,5.898-4.75,10.672-10.656,10.672c-5.875,0-10.656-4.773-10.656-10.672
	c0-5.882,4.781-10.663,10.656-10.663C341.9,191.976,346.65,196.757,346.65,202.639z"/>
<path style="fill:#A0D468;" d="M154.659,309.31c0,5.891-4.781,10.672-10.672,10.672s-10.672-4.781-10.672-10.672
	s4.781-10.656,10.672-10.656S154.659,303.42,154.659,309.31z"/>
<path style="fill:#ED5564;" d="M346.65,309.31c0,5.891-4.75,10.672-10.656,10.672c-5.875,0-10.656-4.781-10.656-10.672
	s4.781-10.656,10.656-10.656C341.9,298.654,346.65,303.42,346.65,309.31z"/>
</svg>