<?xml version="1.0" encoding="iso-8859-1"?>
<!-- Uploaded to: SVG Repo, www.svgrepo.com, Generator: SVG Repo Mixer Tools -->
<svg version="1.1" id="Layer_1" xmlns="http://www.w3.org/2000/svg" xmlns:xlink="http://www.w3.org/1999/xlink" 
	 viewBox="0 0 511.996 511.996" xml:space="preserve">
<polygon style="fill:#434A54;" points="234.662,405.325 106.663,405.325 127.936,330.748 213.357,330.717 "/>
<path style="fill:#5D9CEC;" d="M21.335,341.326c-5.883,0-10.672-4.781-10.672-10.672V127.999c0-5.875,4.789-10.672,10.672-10.672
	h298.663c5.875,0,10.656,4.797,10.656,10.672v202.655c0,5.891-4.781,10.672-10.656,10.672H21.335z"/>
<g>
	<path style="fill:#656D78;" d="M319.998,106.671H21.335C9.554,106.671,0,116.218,0,127.999v202.655
		c-0.001,11.782,9.554,21.344,21.335,21.344h298.663c11.781,0,21.344-9.562,21.344-21.344V127.999
		C341.342,116.218,331.779,106.671,319.998,106.671z M319.998,330.654H21.335V127.999h298.663V330.654z"/>
	<rect x="15.944" y="287.998" style="fill:#656D78;" width="309.44" height="53.34"/>
</g>
<path style="fill:#AAB2BC;" d="M181.334,319.998c0,5.891-4.781,10.656-10.671,10.656c-5.891,0-10.664-4.766-10.664-10.656
	s4.773-10.672,10.664-10.672C176.553,309.326,181.334,314.107,181.334,319.998z"/>
<path style="fill:#656D78;" d="M234.662,383.998h-128c-5.89,0-10.664,4.766-10.664,10.656s4.773,10.671,10.664,10.671h128
	c5.891,0,10.672-4.781,10.672-10.671C245.334,388.764,240.553,383.998,234.662,383.998z"/>
<path style="fill:#CCD1D9;" d="M511.996,394.654c0,5.89-4.781,10.671-10.656,10.671h-128c-5.906,0-10.688-4.781-10.688-10.671
	V117.327c0-5.891,4.781-10.656,10.688-10.656h128c5.875,0,10.656,4.766,10.656,10.656V394.654z"/>
<g>
	<path style="fill:#AAB2BC;" d="M405.34,170.67h64c5.875,0,10.656-4.781,10.656-10.672c0-5.89-4.781-10.671-10.656-10.671h-64
		c-5.906,0-10.688,4.781-10.688,10.671C394.652,165.889,399.434,170.67,405.34,170.67z"/>
	<path style="fill:#AAB2BC;" d="M469.34,191.998h-64c-5.906,0-10.688,4.781-10.688,10.671c0,5.875,4.781,10.656,10.688,10.656h64
		c5.875,0,10.656-4.781,10.656-10.656C479.996,196.78,475.215,191.998,469.34,191.998z"/>
	<path style="fill:#AAB2BC;" d="M469.34,234.654h-64c-5.906,0-10.688,4.781-10.688,10.672s4.782,10.672,10.688,10.672h64
		c5.875,0,10.656-4.781,10.656-10.672S475.215,234.654,469.34,234.654z"/>
</g>
<path style="fill:#ED5564;" d="M447.996,319.998c0,5.891-4.781,10.656-10.656,10.656c-5.906,0-10.688-4.766-10.688-10.656
	s4.781-10.672,10.688-10.672C443.215,309.326,447.996,314.107,447.996,319.998z"/>
<polygon style="opacity:0.1;fill:#FFFFFF;enable-background:new    ;" points="189.334,287.998 127.998,287.998 191.998,127.999 
	253.334,127.999 "/>
</svg>